<svg xmlns="http://www.w3.org/2000/svg" viewBox="0 0 360 96" role="img" aria-labelledby="title desc">
  <title id="title">SREE SRS CONSTRUCTIONS</title>
  <desc id="desc">SREE SRS CONSTRUCTIONS logo</desc>
  <rect width="360" height="96" rx="12" fill="#18212b"/>
  <path d="M28 70V25h12v45H28Zm8-33 18-18h16L45 41l25 29H54L36 50V37Z" fill="#d7ad5b"/>
  <path d="M79 70V19h12v51H79Zm8-39c0-7 5-12 13-12h14v10h-13c-2 0-3 1-3 3s1 3 3 3h6c8 0 13 5 13 13v9c0 8-5 13-13 13H89V59h16c2 0 3-1 3-4v-6c0-3-1-4-3-4h-5c-8 0-13-5-13-14Z" fill="#d7ad5b"/>
  <text x="145" y="42" fill="#f4f1e8" font-family="Georgia, serif" font-size="22" font-weight="700" letter-spacing="1">SREE SRS</text>
  <text x="145" y="67" fill="#d7ad5b" font-family="Arial, sans-serif" font-size="13" font-weight="700" letter-spacing="2">CONSTRUCTIONS</text>
</svg>
